<?xml version="1.0" encoding="UTF-8" standalone="no"?>
<svg xmlns:ffdec="https://www.free-decompiler.com/flash" xmlns:xlink="http://www.w3.org/1999/xlink" ffdec:objectType="frame" height="60.5px" width="67px" xmlns="http://www.w3.org/2000/svg">
  <g transform="translate(1.5,1.5)">
    <use ffdec:characterId="516" height="57.55" transform="matrix(1.0, 0.0, 0.0, 1.0, 0.0, 0.0)" width="64.1" xlink:href="#shape0"/>
    <use ffdec:characterId="1321" height="60.4" transform="matrix(1.0, 0.0, 0.0, 1.0, 0.0, 0.0)" width="66.2" xlink:href="#shape1"/>
    <use ffdec:characterId="1329" height="46.55" transform="matrix(1.0, 0.0, 0.0, 1.0, 0.0, 0.0)" width="50.2" xlink:href="#shape2"/>
    <use ffdec:characterId="518" height="60.55" transform="matrix(1.0, 0.0, 0.0, 1.0, 0.0, 0.0)" width="67.1" xlink:href="#shape3"/>
  </g>
  <defs>
    <g id="shape0">
      <path d="M53.6 0.0 L64.1 0.0 64.1 57.55 53.6 57.55 28.25 57.55 0.0 57.55 0.0 0.0 28.25 0.0 53.6 0.0 53.6 57.55 53.6 0.0 M28.25 0.0 L28.25 57.55 28.25 0.0" fill="#ffffff" fill-rule="evenodd" stroke="none"/>
    </g>
    <g id="shape1">
      <path d="M19.9 -1.0 Q21.4 -0.8 21.45 0.0 21.5 0.8 19.6 1.05 L15.95 1.65 Q14.2 1.95 10.15 4.1 6.1 6.25 3.9 11.05 1.65 15.85 1.4 20.75 L1.2 26.2 1.3 26.95 1.05 27.15 0.45 27.05 Q-0.35 26.55 -0.95 25.7 L-0.95 12.35 -0.5 11.15 -0.95 10.65 -0.95 0.8 -0.65 0.55 Q-0.1 0.05 0.85 0.05 L1.75 0.15 2.5 0.05 4.9 -0.15 6.45 0.05 Q7.1 0.25 7.55 0.8 L7.55 0.85 Q9.0 -0.05 10.65 -0.55 L19.9 -1.0 M44.4 -1.0 L53.65 -0.55 Q55.3 -0.05 56.75 0.85 L56.75 0.8 Q57.2 0.25 57.85 0.05 L59.4 -0.15 61.8 0.05 62.55 0.15 63.45 0.05 Q64.4 0.05 64.95 0.55 L65.25 0.8 65.25 10.65 64.8 11.15 65.25 12.35 65.25 25.7 63.85 27.05 63.25 27.15 63.0 26.95 63.1 26.2 62.9 20.75 Q62.65 15.85 60.4 11.05 58.2 6.25 54.15 4.1 50.1 1.95 48.35 1.65 L44.7 1.05 Q42.8 0.8 42.85 0.0 42.9 -0.8 44.4 -1.0 M44.4 58.9 Q42.9 58.7 42.85 57.9 42.8 57.1 44.7 56.85 L48.35 56.25 Q50.1 55.95 54.15 53.8 58.2 51.65 60.4 46.85 62.65 42.05 62.9 37.15 L63.1 31.7 63.0 30.95 Q63.0 30.8 63.25 30.75 L63.85 30.85 Q64.65 31.35 65.25 32.2 L65.25 45.55 64.8 46.75 65.25 47.25 65.25 57.1 64.95 57.35 Q64.4 57.85 63.45 57.85 L62.55 57.75 61.8 57.85 59.4 58.05 57.85 57.85 Q57.2 57.65 56.75 57.1 L56.75 57.05 Q55.3 57.95 53.65 58.45 L44.4 58.9 M19.9 58.9 L10.65 58.45 Q9.0 57.95 7.55 57.05 L7.55 57.1 Q7.1 57.65 6.45 57.85 L4.9 58.05 2.5 57.85 1.75 57.75 0.85 57.85 Q-0.1 57.85 -0.65 57.35 L-0.95 57.1 -0.95 47.25 -0.5 46.75 -0.95 45.55 -0.95 32.2 Q-0.35 31.35 0.45 30.85 L1.05 30.75 1.3 30.95 1.2 31.7 1.4 37.15 Q1.65 42.05 3.9 46.85 6.1 51.65 10.15 53.8 14.2 55.95 15.95 56.25 L19.6 56.85 Q21.5 57.1 21.45 57.9 21.4 58.7 19.9 58.9" fill="#999999" fill-rule="evenodd" stroke="none"/>
    </g>
    <g id="shape2">
      <path d="M14.2 21.1 Q13.75 19.85 14.25 19.2 14.6 18.8 15.95 18.55 18.05 18.3 22.0 16.9 26.35 15.35 28.25 14.2 L29.75 13.15 Q30.7 12.55 31.4 12.25 L31.7 12.15 31.75 12.15 31.9 12.15 31.9 12.2 32.2 12.25 Q32.9 12.55 33.85 13.15 L35.35 14.2 Q37.25 15.35 41.6 16.9 45.55 18.3 47.65 18.55 49.0 18.8 49.35 19.2 49.85 19.85 49.4 21.1 L47.35 26.1 Q45.45 30.05 43.2 33.45 41.3 36.4 37.85 40.45 L35.5 42.95 33.25 44.55 31.9 45.15 31.8 45.15 31.7 45.15 Q31.1 45.05 30.35 44.55 L28.1 42.95 25.75 40.45 Q22.3 36.4 20.4 33.45 18.15 30.05 16.25 26.1 14.75 22.95 14.2 21.1 M28.55 50.75 Q21.45 46.5 16.0 38.65 11.55 32.15 8.25 23.0 6.75 19.0 6.7 16.35 6.55 14.65 7.35 13.85 8.1 13.15 10.0 13.15 21.8 12.6 31.15 5.85 L31.7 5.5 31.7 5.4 31.8 5.45 31.9 5.4 31.9 5.5 32.45 5.85 Q41.8 12.6 53.6 13.15 55.5 13.15 56.25 13.85 57.05 14.65 56.9 16.35 56.85 19.0 55.35 23.0 52.05 32.15 47.6 38.65 42.15 46.5 35.05 50.75 33.25 51.9 31.9 51.95 L31.8 51.95 31.7 51.95 Q30.35 51.9 28.55 50.75 M26.55 12.6 L23.85 14.15 Q19.15 16.5 11.3 17.6 11.85 20.2 13.15 23.35 L15.7 28.95 Q17.35 32.45 17.95 33.35 19.65 36.25 22.45 39.55 L25.25 42.75 Q27.8 45.25 30.8 46.95 L31.85 47.35 32.8 46.95 Q35.8 45.25 38.35 42.75 L41.15 39.55 Q43.95 36.25 45.65 33.35 L47.9 28.95 50.45 23.35 Q51.75 20.2 52.3 17.6 44.45 16.5 39.75 14.15 L37.05 12.6 Q33.6 10.5 31.8 8.65 30.0 10.5 26.55 12.6" fill="#000000" fill-rule="evenodd" stroke="none"/>
    </g>
    <g id="shape3">
      <path d="M0.0 23.8 L0.0 0.0 64.1 0.0 64.1 23.8 64.1 57.55 0.0 57.55 0.0 23.8 Z" fill="none" stroke="#000000" stroke-linecap="round" stroke-linejoin="round" stroke-width="3.0"/>
    </g>
  </defs>
</svg>
