<?xml version="1.0" encoding="UTF-8" standalone="no"?>
<svg xmlns:ffdec="https://www.free-decompiler.com/flash" xmlns:xlink="http://www.w3.org/1999/xlink" ffdec:objectType="frame" height="44.33px" width="78.6px" xmlns="http://www.w3.org/2000/svg">
  <g transform="translate(2,2)">
    <use ffdec:characterId="1" height="42.7" transform="matrix(1.0, 0.0, 0.0, 1.0, 0.0, 0.0)" width="76.45" xlink:href="#shape0"/>
    <use ffdec:characterId="183" height="43.1" transform="matrix(1.0, 0.0, 0.0, 1.0, 0.0, 0.0)" width="76.7" xlink:href="#shape1"/>
    <use ffdec:characterId="3" height="44.35" transform="matrix(1.0, 0.0, 0.0, 1.0, 0.0, 0.0)" width="78.6" xlink:href="#shape2"/>
  </g>
  <defs>
    <g id="shape0">
      <path d="M2.8 0.0 L2.8 -0.4 5.4 -0.4 5.4 0.0 9.7 0.0 9.7 19.45 9.7 0.0 20.55 0.0 19.3 19.45 9.7 19.45 0.25 19.45 0.25 0.0 2.8 0.0" fill="#ffffff" fill-rule="evenodd" stroke="none"/>
      <path d="M0.25 19.45 L9.7 19.45 19.3 19.45 18.7 28.6 16.0 28.5 10.95 27.95 9.7 27.8 Q7.45 27.6 5.85 27.75 4.05 27.9 1.5 28.6 0.75 28.8 0.25 29.15 L0.25 19.45 M9.7 19.45 L9.7 27.8 9.7 19.45" fill="#121212" fill-rule="evenodd" stroke="none"/>
      <path d="M9.7 27.8 L10.95 27.95 16.0 28.5 18.7 28.6 19.75 28.6 23.5 28.75 Q25.95 29.05 27.1 30.0 27.7 30.5 27.7 31.1 27.7 31.75 26.9 32.1 L25.6 32.3 18.45 32.45 12.85 32.15 9.7 31.75 7.95 31.6 3.1 31.95 0.95 32.3 0.25 32.1 -0.35 31.55 -0.5 31.3 -0.5 29.9 0.25 29.15 Q0.75 28.8 1.5 28.6 4.05 27.9 5.85 27.75 7.45 27.6 9.7 27.8 L9.7 31.75 9.7 27.8" fill="#999999" fill-rule="evenodd" stroke="none"/>
      <path d="M2.8 0.0 L0.25 0.0 M9.7 0.0 L5.4 0.0 M21.55 0.0 L32.25 0.0 M20.55 0.0 L9.7 0.0" fill="none" stroke="#666666" stroke-linecap="round" stroke-linejoin="round" stroke-width="4.0"/>
      <path d="M9.7 -0.4 L74.7 -0.4 74.7 40.5 47.05 40.5 45.5 40.7 27.0 40.65 25.95 40.5 9.7 40.5 -0.5 40.5 -0.5 -0.4 9.7 -0.4 9.7 40.5 9.7 -0.4" fill="#ffffff" fill-rule="evenodd" stroke="none"/>
    </g>
    <g id="shape1">
      <path d="M-0.5 -0.55 L75.2 -0.55 75.2 41.35 -0.5 41.35 -0.5 -0.55" fill="#999999" fill-rule="evenodd" stroke="none"/>
      <path d="M-0.5 -0.55 L75.2 -0.55 75.2 41.35 -0.5 41.35 -0.5 -0.55 Z" fill="none" stroke="#999999" stroke-linecap="round" stroke-linejoin="round" stroke-width="1.0"/>
      <path d="M1.75 11.2 L-0.1 11.15 -0.65 10.8 -0.45 10.45 Q-0.3 10.3 -0.05 10.3 L3.65 9.35 7.5 8.65 7.8 8.65 Q10.25 7.45 13.6 6.65 L14.4 6.35 15.05 5.65 16.8 3.65 16.05 1.0 Q15.8 0.3 15.85 -0.25 15.95 -1.0 16.65 -1.2 17.3 -1.25 17.7 -0.55 L18.0 0.7 18.45 2.2 18.8 3.65 18.75 4.45 18.2 5.3 16.6 7.05 15.75 8.15 14.6 8.45 11.45 9.3 12.35 9.4 16.05 9.8 Q17.1 9.8 17.4 10.15 17.75 10.5 17.55 11.6 17.05 14.65 16.9 16.9 16.8 18.05 16.4 18.4 L14.9 18.9 Q14.1 19.0 12.85 19.45 L10.8 20.15 10.1 20.4 9.65 21.05 8.15 23.75 13.35 20.8 14.35 20.5 Q15.05 20.55 15.65 21.6 L16.7 23.3 Q17.3 24.35 17.15 24.95 L17.05 25.2 16.7 25.9 13.9 30.75 15.7 30.4 17.2 30.5 Q17.65 30.8 17.75 32.2 L18.5 38.25 20.1 36.7 21.1 35.65 22.6 34.05 23.3 33.0 23.75 32.85 23.9 32.8 24.7 33.0 Q25.0 33.3 24.85 33.75 L24.7 34.05 Q25.15 36.25 25.9 38.55 L26.25 40.1 26.15 40.7 25.55 41.25 24.75 41.0 24.4 40.3 23.15 35.85 23.1 35.8 22.8 36.1 19.55 40.1 Q19.2 40.55 18.95 40.35 18.65 40.2 18.85 39.8 L19.05 39.55 18.7 39.8 18.65 40.6 18.0 41.3 Q17.45 41.55 17.0 41.3 16.5 41.1 16.2 40.35 L16.05 39.1 15.35 32.9 12.65 33.5 11.7 33.75 10.8 34.85 10.25 35.8 10.0 36.15 10.0 36.65 10.0 38.0 10.0 39.85 9.8 40.6 9.5 40.75 9.2 40.6 Q8.95 40.3 8.95 39.75 L8.9 37.15 8.75 36.6 8.75 36.4 8.6 36.4 8.0 36.45 7.0 36.35 6.5 36.4 5.05 36.45 4.25 36.35 0.6 36.55 0.4 36.5 Q0.2 36.5 0.35 36.35 L0.45 36.25 1.45 36.0 3.45 35.65 3.7 35.5 4.7 35.45 5.25 35.35 6.3 35.15 8.7 34.8 9.0 34.8 9.8 33.4 10.55 32.45 11.05 31.15 11.75 30.0 Q13.6 26.8 14.95 25.1 L14.55 24.55 13.8 23.1 10.45 24.85 8.85 25.65 3.45 28.4 3.05 28.6 1.65 29.3 0.3 29.85 -0.25 29.95 -0.65 29.65 -0.3 29.05 Q1.55 27.45 5.5 25.25 L5.75 24.7 5.9 24.45 7.0 22.6 7.15 22.35 8.1 20.5 8.9 19.0 9.1 18.75 Q9.35 18.5 10.0 18.3 L10.4 18.1 14.8 16.75 15.45 11.75 12.0 11.35 8.55 10.95 7.65 10.9 6.65 11.9 4.7 14.05 3.9 15.0 3.45 15.55 3.45 16.3 3.6 17.1 3.9 19.2 3.85 20.0 3.15 20.8 2.3 21.65 0.5 23.45 Q-0.1 24.2 -0.6 24.0 -1.1 23.85 -1.0 23.2 L-0.6 22.35 2.1 19.65 2.45 19.2 2.45 18.9 2.2 16.55 Q2.1 15.95 2.25 15.5 L2.9 14.7 5.35 12.2 6.7 10.8 3.7 11.1 3.0 11.15 1.85 11.2 1.75 11.2 M26.5 5.0 L26.6 4.9 28.05 2.8 29.7 0.3 Q30.1 -0.4 30.55 -0.5 L31.25 -0.3 31.55 0.3 31.2 1.05 28.5 5.4 27.3 6.85 26.95 7.2 26.0 7.05 23.5 6.35 Q22.7 5.95 22.3 5.9 L21.3 5.8 20.9 5.55 20.75 5.4 20.5 5.1 19.15 2.4 19.05 2.15 18.65 1.35 Q18.35 0.85 18.4 0.45 L19.05 -0.25 19.55 -0.5 19.9 -0.7 Q20.3 -0.75 20.6 -0.35 L21.5 2.05 22.05 3.5 Q22.05 3.8 22.2 3.9 L22.5 4.0 23.0 4.1 24.25 4.55 25.95 5.15 26.35 5.1 26.5 5.0 M64.2 32.7 L61.1 33.55 60.3 33.85 59.65 34.55 57.9 36.55 58.65 39.2 58.85 40.45 Q58.75 41.2 58.05 41.4 57.4 41.45 57.0 40.75 L56.7 39.5 56.25 38.0 55.9 36.55 55.95 35.75 56.5 34.9 58.1 33.15 58.95 32.05 Q59.3 31.85 60.1 31.75 L63.25 30.9 62.35 30.8 58.65 30.4 Q57.6 30.4 57.3 30.05 56.95 29.7 57.15 28.6 L57.8 23.3 Q57.9 22.15 58.3 21.8 58.6 21.5 59.8 21.3 L61.85 20.75 63.9 20.05 64.6 19.8 65.05 19.15 66.55 16.45 61.35 19.4 60.35 19.7 Q59.65 19.65 59.05 18.6 L58.0 16.9 Q57.4 15.85 57.55 15.25 L57.65 15.0 58.0 14.3 60.8 9.45 59.0 9.8 57.5 9.7 Q57.05 9.4 56.95 8.0 L56.2 1.95 54.6 3.5 53.6 4.55 52.1 6.15 51.4 7.2 50.95 7.35 50.8 7.4 Q50.35 7.5 50.0 7.2 49.7 6.9 49.85 6.45 L50.0 6.15 48.8 1.65 48.45 0.1 48.55 -0.5 49.15 -1.05 Q49.6 -1.15 49.95 -0.8 L50.3 -0.1 50.9 1.95 51.2 3.15 51.55 4.35 51.6 4.4 51.9 4.1 55.15 0.1 Q55.5 -0.35 55.75 -0.15 56.05 0.0 55.85 0.4 L55.65 0.65 56.0 0.4 Q55.95 -0.1 56.05 -0.4 56.2 -0.9 56.7 -1.1 57.25 -1.35 57.7 -1.1 58.2 -0.9 58.5 -0.15 L58.65 1.1 59.35 7.3 62.05 6.7 63.0 6.45 63.9 5.35 64.3 4.75 64.45 4.4 64.7 4.05 64.7 3.55 64.7 2.55 64.7 0.35 64.9 -0.4 65.2 -0.55 65.5 -0.4 65.75 0.45 65.8 2.85 65.8 3.05 65.9 3.4 65.95 3.6 65.95 3.8 66.1 3.8 66.7 3.75 67.7 3.85 69.1 3.8 69.65 3.75 70.45 3.85 73.45 3.7 74.1 3.65 74.3 3.7 Q74.5 3.7 74.35 3.85 L74.25 3.95 71.25 4.55 71.0 4.7 70.0 4.75 68.4 5.05 66.0 5.4 65.7 5.4 64.9 6.8 64.15 7.75 63.65 9.05 62.95 10.2 59.75 15.1 60.15 15.65 60.9 17.1 63.8 15.65 65.45 14.8 71.15 11.9 71.65 11.6 72.25 11.3 74.4 10.35 74.95 10.25 Q75.25 10.25 75.35 10.55 L75.0 11.15 Q73.15 12.75 69.2 14.95 L68.95 15.5 68.5 16.25 67.7 17.6 67.55 17.85 Q66.9 18.9 66.6 19.7 L65.6 21.45 64.3 22.1 63.5 22.35 62.25 22.75 59.9 23.45 59.25 28.45 62.7 28.85 66.15 29.25 67.05 29.3 68.05 28.3 70.0 26.15 70.8 25.2 71.25 24.65 71.25 23.9 70.8 21.0 70.85 20.2 71.55 19.4 74.2 16.75 Q74.8 16.0 75.3 16.2 75.8 16.35 75.7 17.0 L75.3 17.85 72.6 20.55 72.25 21.0 72.25 21.3 72.5 23.65 72.45 24.7 71.8 25.5 69.35 28.0 68.0 29.4 71.0 29.1 72.85 29.0 74.8 29.05 Q75.3 29.15 75.35 29.4 L75.15 29.75 74.75 29.9 71.05 30.85 67.2 31.55 66.9 31.55 65.0 32.4 64.2 32.7 M45.5 39.15 L45.0 39.9 44.15 40.7 43.45 40.5 Q43.15 40.25 43.15 39.9 43.15 39.6 43.5 39.15 L46.2 34.8 47.4 33.35 47.75 33.0 48.7 33.15 51.2 33.85 52.4 34.3 53.4 34.4 53.8 34.65 53.95 34.8 54.2 35.1 55.55 37.8 55.65 38.05 56.05 38.85 56.3 39.75 55.65 40.45 55.15 40.7 54.8 40.9 Q54.4 40.95 54.1 40.55 L53.2 38.15 52.65 36.7 52.5 36.3 52.2 36.2 50.45 35.65 48.75 35.05 48.35 35.1 48.1 35.3 47.2 36.6 46.65 37.4 45.5 39.15" fill="#000000" fill-rule="evenodd" stroke="none"/>
      <path d="M11.35 0.45 Q12.35 1.4 12.35 3.45 L12.15 4.9 11.65 5.9 Q10.6 7.35 9.05 7.85 7.25 8.35 5.85 7.55 5.0 7.05 4.4 6.05 3.35 3.95 4.7 1.65 L5.2 0.9 Q6.05 -0.05 7.35 -0.2 L8.1 -0.3 8.55 -0.6 9.15 -0.7 10.1 -0.4 11.35 0.45 M10.25 35.8 L11.35 35.6 12.1 35.65 12.9 35.7 13.5 35.85 13.95 36.05 15.05 37.15 15.4 37.7 15.9 38.95 15.8 39.7 Q15.5 40.1 15.15 39.95 L14.7 39.3 14.4 38.85 14.1 38.45 13.5 37.8 13.2 37.6 11.65 37.4 10.9 37.65 10.3 37.95 10.0 38.0 10.0 36.65 10.0 36.15 10.25 35.8 M6.5 36.4 L7.05 37.45 7.25 38.05 7.25 38.35 7.3 38.75 7.25 39.4 6.95 40.1 Q6.75 40.3 6.4 40.1 6.15 39.95 6.05 39.65 L6.05 39.35 5.75 38.35 5.4 37.75 4.65 37.0 4.05 37.05 2.9 37.35 2.1 37.75 1.55 38.5 1.0 39.25 Q0.75 39.6 0.35 39.6 0.0 39.6 -0.2 39.3 L-0.4 38.65 Q-0.45 38.1 0.05 37.2 L0.6 36.55 4.25 36.35 5.05 36.45 6.5 36.4 M1.45 36.0 L2.0 35.7 3.15 35.4 4.5 35.25 5.25 35.35 4.7 35.45 3.7 35.5 3.45 35.65 1.45 36.0 M10.45 24.85 L10.65 25.05 Q10.85 25.3 10.85 26.0 L10.8 27.45 Q10.65 29.95 9.0 31.45 L7.6 32.4 6.8 32.75 5.45 32.85 4.2 32.7 Q3.65 32.5 3.1 32.1 L2.4 31.45 Q1.75 30.65 1.65 29.35 L1.65 29.3 3.05 28.6 3.45 28.4 3.4 28.85 3.35 29.15 3.4 29.4 4.3 30.25 5.5 30.65 7.25 30.05 7.95 29.4 8.6 27.9 8.85 26.3 8.85 25.65 10.45 24.85 M5.9 24.45 Q4.45 24.45 3.6 23.85 2.75 23.25 2.3 21.75 L2.3 21.65 3.15 20.8 3.85 20.0 3.9 19.2 3.6 17.1 4.45 16.35 Q5.5 15.8 7.05 15.9 L7.95 16.05 8.8 16.55 9.7 17.45 10.0 18.3 Q9.35 18.5 9.1 18.75 L8.9 19.0 8.8 18.8 8.5 18.5 Q7.25 17.6 5.9 18.05 L5.35 18.3 4.95 18.9 Q4.25 20.1 4.3 20.8 4.4 21.55 4.8 21.95 5.3 22.45 5.9 22.35 L6.7 22.25 7.15 22.35 7.0 22.6 5.9 24.45 M3.0 11.15 L3.1 11.6 3.1 12.4 3.0 12.5 3.0 12.85 2.95 13.2 2.7 13.75 2.1 14.7 Q1.9 14.8 1.85 14.9 L1.5 15.15 0.55 15.2 Q0.25 15.1 0.25 14.8 L0.4 14.45 1.55 13.3 1.7 13.0 1.85 12.4 1.85 12.1 1.9 11.9 1.85 11.65 1.75 11.35 1.75 11.2 1.85 11.2 3.0 11.15 M23.0 4.1 L22.85 3.1 23.05 2.15 23.3 1.5 23.55 1.1 23.85 0.75 24.85 0.05 25.75 -0.3 26.1 -0.35 Q26.9 -0.35 27.05 0.4 L27.05 0.8 26.6 1.05 Q26.0 1.2 25.5 1.55 L24.9 2.15 24.75 2.8 24.75 3.35 24.9 3.7 25.25 4.05 25.75 4.15 Q26.35 4.35 26.45 4.9 L26.5 5.0 26.35 5.1 25.95 5.15 24.25 4.55 23.0 4.1 M50.9 1.95 L51.25 1.8 52.0 1.3 52.15 1.1 52.15 0.9 52.2 0.5 52.3 0.25 52.4 0.2 52.55 -0.1 52.75 -0.3 52.9 -0.3 52.9 -0.35 53.25 -0.1 53.3 0.05 53.4 0.25 53.45 0.4 53.35 1.1 53.35 1.4 53.15 1.85 52.8 2.45 52.0 3.05 51.65 3.15 51.2 3.15 50.9 1.95 M64.3 4.75 L63.8 4.95 63.05 5.15 62.15 5.1 61.0 4.9 60.5 4.65 59.45 3.65 59.1 3.15 58.85 2.1 58.85 1.05 59.2 0.35 59.65 -0.1 60.3 -0.15 60.7 0.3 60.45 1.0 Q60.3 1.45 60.6 2.1 L61.05 2.85 62.25 3.3 62.9 3.35 63.45 3.2 64.45 2.7 64.7 2.55 64.7 3.55 64.7 4.05 64.45 4.4 64.3 4.75 M65.8 2.85 L65.9 3.35 65.9 3.4 65.8 3.05 65.8 2.85 M69.1 3.8 L68.85 3.65 68.1 2.85 67.7 2.05 67.5 1.25 67.65 0.25 67.75 -0.05 68.15 -0.3 Q68.5 -0.3 68.6 0.2 L68.6 0.95 68.9 1.75 69.3 2.1 70.45 2.65 71.4 2.7 71.85 2.65 72.9 2.25 74.0 1.65 74.65 1.65 74.8 1.7 74.8 1.9 74.5 2.8 73.9 3.4 73.45 3.7 70.45 3.85 69.65 3.75 69.1 3.8 M63.8 15.65 L63.45 15.4 Q63.0 15.0 62.9 13.95 62.75 11.5 63.9 9.9 L65.1 8.75 Q65.75 8.3 66.25 8.1 L67.95 7.9 Q69.25 7.9 70.1 8.35 L71.05 9.05 Q72.05 10.05 72.25 11.3 L71.65 11.6 71.15 11.9 70.9 11.6 69.9 10.7 69.4 10.35 68.55 10.2 67.05 10.4 Q66.1 10.75 65.6 11.8 65.2 12.9 65.4 13.85 L65.45 14.6 65.45 14.8 63.8 15.65 M68.5 16.25 Q68.85 16.45 69.2 16.8 70.05 17.65 70.3 18.3 L70.5 19.0 70.55 21.15 Q70.3 22.7 69.3 23.8 68.25 25.0 66.8 25.3 L65.6 25.35 63.8 25.05 62.75 24.25 62.35 23.75 62.25 22.75 63.5 22.35 63.5 22.4 63.65 22.85 63.95 23.1 66.3 23.4 Q67.55 23.15 68.25 22.1 L68.65 21.2 Q69.05 19.95 68.75 19.25 L68.35 18.6 67.8 18.0 67.55 17.85 67.7 17.6 68.5 16.25 M65.0 32.4 L66.4 32.3 Q68.1 32.4 68.85 32.95 L69.6 33.6 Q70.55 34.55 70.8 35.4 L70.95 37.4 70.7 38.75 70.15 39.45 Q69.25 40.45 68.3 40.5 L67.6 40.35 67.45 40.05 67.55 39.7 67.9 39.55 68.2 39.3 69.1 38.1 69.3 37.0 69.1 36.1 Q68.6 34.95 67.5 34.55 L65.25 34.65 Q64.05 35.35 63.55 36.7 L63.4 37.45 63.55 38.0 64.0 38.85 64.55 39.15 Q65.35 39.55 65.3 40.15 L64.8 40.75 63.2 40.8 Q62.4 40.5 61.95 39.8 L61.4 38.9 Q60.8 37.3 61.45 35.65 62.1 34.1 63.55 33.05 L64.2 32.7 65.0 32.4 M47.2 36.6 L47.5 36.5 49.25 36.5 49.85 36.7 50.9 37.2 51.55 37.7 Q52.3 38.45 52.4 39.1 L52.4 39.5 52.3 39.7 52.2 40.1 Q52.1 40.4 51.8 40.2 L51.55 39.9 51.2 39.5 50.85 39.15 Q50.55 38.9 49.85 38.6 L49.3 38.35 48.65 38.25 47.05 38.5 46.2 39.05 45.5 39.15 46.65 37.4 47.2 36.6 M10.3 4.1 L10.45 3.6 10.4 2.9 10.3 2.5 10.1 2.15 10.05 1.95 Q9.95 1.6 9.55 1.6 L9.55 1.65 9.5 1.65 8.6 1.8 7.65 2.15 7.25 2.35 6.9 2.75 6.45 3.9 6.4 4.15 6.45 4.55 6.6 4.85 7.25 5.55 8.25 5.7 8.7 5.6 9.1 5.4 9.85 4.85 10.15 4.4 10.3 4.1" fill="#ffffff" fill-rule="evenodd" stroke="none"/>
      <path d="M36.15 38.2 L36.1 38.2 33.9 38.35 33.25 38.35 32.65 38.3 32.6 38.3 29.65 37.9 Q28.55 37.65 26.55 36.55 24.75 35.55 23.6 34.6 L22.5 33.6 21.95 33.0 21.7 32.8 19.85 30.8 18.6 29.1 Q17.3 27.0 17.05 23.95 16.9 21.85 17.25 18.5 17.9 12.5 20.05 9.3 L21.2 7.9 Q23.3 5.5 25.55 4.25 L28.55 2.85 30.15 2.25 Q32.45 1.55 34.45 1.55 L36.85 1.45 38.95 1.5 Q40.6 1.6 42.85 2.25 L44.45 2.85 Q46.7 3.8 47.45 4.25 49.7 5.5 51.8 7.9 L52.95 9.3 Q55.1 12.5 55.75 18.5 56.1 21.85 55.95 23.95 55.7 27.0 54.4 29.1 L53.15 30.8 51.3 32.8 51.05 33.0 50.5 33.6 49.4 34.6 46.45 36.55 43.35 37.9 40.4 38.3 40.35 38.3 39.75 38.35 39.1 38.35 36.9 38.2 36.45 38.2 36.15 38.2 M31.1 7.6 L30.45 7.9 Q27.75 8.35 25.8 10.5 L24.15 12.95 23.05 15.2 22.45 16.7 22.35 17.2 22.2 18.55 Q22.1 20.95 22.4 23.05 22.65 25.45 23.5 27.15 L23.6 27.4 24.3 28.9 25.7 30.9 26.45 31.75 29.25 34.2 30.4 34.9 31.7 35.4 32.4 35.6 33.3 35.8 Q36.15 36.75 38.2 36.25 L40.65 35.6 41.3 35.4 42.6 34.9 43.75 34.2 46.55 31.75 47.3 30.9 48.7 28.9 49.4 27.4 49.5 27.15 Q50.35 25.45 50.6 23.05 50.9 20.95 50.8 18.55 L50.65 17.2 50.55 16.7 49.95 15.2 48.85 12.95 47.2 10.5 Q45.25 8.35 42.55 7.9 L41.9 7.6 37.0 6.9 36.75 6.9 36.55 6.9 36.0 6.95 36.0 6.9 Q33.1 6.95 31.1 7.6 M28.0 26.4 L28.0 26.3 27.95 26.25 Q27.65 25.3 27.65 24.45 L27.6 24.3 Q27.4 22.35 28.1 20.45 28.8 18.5 30.2 17.15 31.35 16.1 32.45 15.7 33.3 15.35 35.1 15.15 L36.0 15.1 37.0 15.1 37.9 15.15 40.55 15.7 Q41.65 16.1 42.8 17.15 44.2 18.5 44.9 20.45 45.6 22.35 45.4 24.3 L45.35 24.45 45.05 26.25 45.0 26.3 45.0 26.4 44.6 27.95 44.55 28.05 Q44.1 29.3 43.2 30.3 L42.55 30.95 Q41.35 32.05 39.85 32.55 L39.4 32.7 38.15 32.95 37.0 33.05 36.5 33.0 34.85 32.95 33.6 32.7 33.15 32.55 Q31.65 32.05 30.45 30.95 L29.8 30.3 Q28.9 29.3 28.45 28.05 L28.4 27.95 28.0 26.4" fill="#000000" fill-rule="evenodd" stroke="none"/>
      <path d="M31.1 7.6 Q33.1 6.95 36.0 6.9 L36.0 6.95 36.55 6.9 36.75 6.9 37.0 6.9 41.9 7.6 42.55 7.9 Q45.25 8.35 47.2 10.5 L48.85 12.95 49.95 15.2 50.55 16.7 50.65 17.2 50.8 18.55 Q50.9 20.95 50.6 23.05 50.35 25.45 49.5 27.15 L49.4 27.4 48.7 28.9 47.3 30.9 46.55 31.75 43.75 34.2 42.6 34.9 41.3 35.4 40.65 35.6 38.2 36.25 Q36.15 36.75 33.3 35.8 L32.4 35.6 31.7 35.4 30.4 34.9 29.25 34.2 26.45 31.75 25.7 30.9 24.3 28.9 23.6 27.4 23.5 27.15 Q22.65 25.45 22.4 23.05 22.1 20.95 22.2 18.55 L22.35 17.2 22.45 16.7 23.05 15.2 24.15 12.95 25.8 10.5 Q27.75 8.35 30.45 7.9 L31.1 7.6 M34.35 12.3 Q32.55 12.65 30.75 13.8 28.55 15.3 27.3 17.75 L26.9 18.7 26.6 19.55 Q26.05 21.15 26.1 22.85 L26.3 24.8 Q26.9 27.8 29.15 30.7 L29.85 31.55 30.8 32.3 Q33.25 34.05 36.0 34.15 L36.3 34.15 36.7 34.15 37.0 34.15 Q39.75 34.05 42.2 32.3 L43.15 31.55 43.85 30.7 Q46.1 27.8 46.7 24.8 L46.9 22.85 Q46.95 21.15 46.4 19.55 L46.1 18.7 45.7 17.75 Q44.45 15.3 42.25 13.8 40.45 12.65 38.65 12.3 L37.05 12.15 37.0 12.15 36.5 12.15 36.0 12.15 35.95 12.15 34.35 12.3" fill="#ffffff" fill-rule="evenodd" stroke="none"/>
      <path d="M28.0 26.4 L28.4 27.95 28.45 28.05 Q28.9 29.3 29.8 30.3 L30.45 30.95 Q31.65 32.05 33.15 32.55 L33.6 32.7 34.85 32.95 36.5 33.0 37.0 33.05 38.15 32.95 39.4 32.7 39.85 32.55 Q41.35 32.05 42.55 30.95 L43.2 30.3 Q44.1 29.3 44.55 28.05 L44.6 27.95 45.0 26.4 45.0 26.3 45.05 26.25 45.35 24.45 45.4 24.3 Q45.6 22.35 44.9 20.45 44.2 18.5 42.8 17.15 41.65 16.1 40.55 15.7 L37.9 15.15 37.0 15.1 36.0 15.1 35.1 15.15 Q33.3 15.35 32.45 15.7 31.35 16.1 30.2 17.15 28.8 18.5 28.1 20.45 27.4 22.35 27.6 24.3 L27.65 24.45 Q27.65 25.3 27.95 26.25 L28.0 26.3 28.0 26.4 M34.35 12.3 L35.95 12.15 36.0 12.15 36.5 12.15 37.0 12.15 37.05 12.15 38.65 12.3 Q40.45 12.65 42.25 13.8 44.45 15.3 45.7 17.75 L46.1 18.7 46.4 19.55 Q46.95 21.15 46.9 22.85 L46.7 24.8 Q46.1 27.8 43.85 30.7 L43.15 31.55 42.2 32.3 Q39.75 34.05 37.0 34.15 L36.7 34.15 36.3 34.15 36.0 34.15 Q33.25 34.05 30.8 32.3 L29.85 31.55 29.15 30.7 Q26.9 27.8 26.3 24.8 L26.1 22.85 Q26.05 21.15 26.6 19.55 L26.9 18.7 27.3 17.75 Q28.55 15.3 30.75 13.8 32.55 12.65 34.35 12.3" fill="#999999" fill-rule="evenodd" stroke="none"/>
    </g>
    <g id="shape2">
      <path d="M-0.5 -0.4 L-0.5 -0.55 75.1 -0.55 75.1 -0.4 75.1 40.8 -0.5 40.8 -0.5 -0.4 Z" fill="none" stroke="#000000" stroke-linecap="round" stroke-linejoin="round" stroke-width="3.0"/>
    </g>
  </defs>
</svg>
