<?xml version="1.0" encoding="UTF-8" standalone="no"?>
<svg xmlns:ffdec="https://www.free-decompiler.com/flash" xmlns:xlink="http://www.w3.org/1999/xlink" ffdec:objectType="frame" height="60.5px" width="67px" xmlns="http://www.w3.org/2000/svg">
  <g transform="translate(1.5,1.5)">
    <use ffdec:characterId="516" height="57.55" transform="matrix(1.0, 0.0, 0.0, 1.0, 0.0, 0.0)" width="64.1" xlink:href="#shape0"/>
    <use ffdec:characterId="942" height="52.35" transform="matrix(1.0, 0.0, 0.0, 1.0, 0.0, 0.0)" width="62.15" xlink:href="#shape1"/>
    <use ffdec:characterId="518" height="60.55" transform="matrix(1.0, 0.0, 0.0, 1.0, 0.0, 0.0)" width="67.1" xlink:href="#shape2"/>
  </g>
  <defs>
    <g id="shape0">
      <path d="M53.6 0.0 L64.1 0.0 64.1 57.55 53.6 57.55 28.25 57.55 0.0 57.55 0.0 0.0 28.25 0.0 53.6 0.0 53.6 57.55 53.6 0.0 M28.25 0.0 L28.25 57.55 28.25 0.0" fill="#ffffff" fill-rule="evenodd" stroke="none"/>
    </g>
    <g id="shape1">
      <path d="M38.25 23.4 Q40.2 27.9 39.15 32.95 L39.1 33.2 38.75 35.85 Q38.15 38.75 36.5 41.3 34.8 43.9 32.4 45.6 29.1 47.9 24.7 48.55 L22.1 48.8 22.5 54.3 Q22.75 56.85 21.85 58.0 L0.25 58.0 Q-0.5 56.95 -0.35 55.2 L0.1 53.3 -0.5 52.95 -1.35 51.95 Q-1.6 51.3 -1.5 50.65 -1.35 49.85 -0.35 48.55 L-0.1 48.3 -0.25 47.8 Q-0.35 47.05 0.0 46.4 L0.75 45.4 Q1.6 44.6 3.0 43.6 L5.35 41.95 Q5.8 41.6 6.15 41.4 L6.05 41.25 Q5.35 39.9 4.75 37.95 3.3 33.85 3.15 31.4 2.95 28.4 4.05 25.3 L4.95 23.2 4.35 21.65 3.7 16.25 3.7 14.8 Q3.9 13.95 4.45 13.6 L5.65 13.4 12.2 13.8 14.3 14.15 Q16.65 13.0 19.3 12.6 L24.15 12.4 26.75 12.75 Q27.45 12.2 28.8 11.4 L31.1 10.05 32.4 9.3 33.5 9.25 Q34.05 9.4 34.4 9.85 L34.8 10.9 36.05 16.35 Q36.75 19.5 36.85 20.95 L38.25 23.4 M13.3 34.85 Q14.1 33.35 15.15 32.7 16.4 31.8 17.85 32.1 18.45 32.2 19.6 32.65 21.05 32.9 22.7 31.8 L24.1 30.75 Q24.95 30.15 25.65 30.0 L26.25 29.95 Q25.45 30.8 25.1 32.2 L24.8 33.95 24.8 34.5 25.1 35.55 25.4 36.0 25.15 36.15 24.0 36.9 22.4 37.05 21.25 36.6 20.05 36.05 17.85 36.15 Q16.8 36.85 16.2 37.0 15.5 37.2 14.4 37.0 13.5 36.8 13.2 36.45 12.8 35.85 13.3 34.85 M29.05 35.35 L27.3 35.1 27.05 34.65 26.85 34.25 26.8 33.3 Q27.0 32.15 27.3 31.6 L28.5 30.25 28.65 30.25 Q31.55 30.55 33.75 28.45 34.4 27.9 34.45 27.25 L34.35 26.55 33.8 26.15 Q33.25 26.1 32.5 26.85 31.15 28.1 29.65 27.9 L27.95 27.35 25.4 27.05 25.4 27.0 Q25.15 26.0 24.45 25.6 23.5 25.05 22.8 25.75 22.45 26.15 22.35 27.0 L22.3 28.2 22.05 28.35 21.35 28.9 20.55 29.3 19.45 29.2 18.4 28.8 14.4 29.05 Q12.6 29.75 11.2 31.55 9.7 33.35 9.5 35.3 9.35 37.75 10.85 39.15 12.3 40.55 15.55 40.45 17.25 40.45 18.1 39.8 18.75 39.3 19.0 39.3 L19.7 39.55 Q21.3 40.5 23.3 40.35 25.3 40.15 26.75 38.9 27.25 38.4 27.65 38.35 L28.25 38.45 Q28.45 38.5 28.85 38.7 30.35 39.3 32.4 37.8 33.7 36.95 33.5 36.0 33.35 35.2 32.5 35.05 31.8 34.9 31.15 35.3 L30.0 35.7 29.05 35.35 M11.85 23.75 Q11.4 24.35 11.35 25.15 11.3 25.9 11.7 26.55 L11.85 26.75 12.9 26.35 13.75 26.15 16.05 26.0 16.15 25.1 Q16.1 24.3 15.55 23.7 15.0 23.05 14.25 22.85 L12.9 22.95 Q12.35 23.15 11.85 23.75 M27.15 22.15 Q27.2 23.4 27.95 24.25 L28.1 24.15 30.4 23.6 33.25 23.45 33.8 23.5 Q34.15 22.7 34.1 21.75 34.0 20.7 33.45 19.9 32.85 19.1 31.85 18.75 L29.9 18.6 Q28.9 18.85 28.15 19.6 27.45 20.3 27.25 21.3 L27.15 22.15" fill="#000000" fill-rule="evenodd" stroke="none"/>
      <path d="M27.15 22.15 L27.25 21.3 Q27.45 20.3 28.15 19.6 28.9 18.85 29.9 18.6 L31.85 18.75 Q32.85 19.1 33.45 19.9 34.0 20.7 34.1 21.75 34.15 22.7 33.8 23.5 L33.25 23.45 30.4 23.6 28.1 24.15 27.95 24.25 Q27.2 23.4 27.15 22.15 M11.85 23.75 Q12.35 23.15 12.9 22.95 L14.25 22.85 Q15.0 23.05 15.55 23.7 16.1 24.3 16.15 25.1 L16.05 26.0 13.75 26.15 12.9 26.35 11.85 26.75 11.7 26.55 Q11.3 25.9 11.35 25.15 11.4 24.35 11.85 23.75 M29.05 35.35 L30.0 35.7 31.15 35.3 Q31.8 34.9 32.5 35.05 33.35 35.2 33.5 36.0 33.7 36.95 32.4 37.8 30.35 39.3 28.85 38.7 28.45 38.5 28.25 38.45 L27.65 38.35 Q27.25 38.4 26.75 38.9 25.3 40.15 23.3 40.35 21.3 40.5 19.7 39.55 L19.0 39.3 Q18.75 39.3 18.1 39.8 17.25 40.45 15.55 40.45 12.3 40.55 10.85 39.15 9.35 37.75 9.5 35.3 9.7 33.35 11.2 31.55 12.6 29.75 14.4 29.05 L18.4 28.8 19.45 29.2 20.55 29.3 21.35 28.9 22.05 28.35 22.3 28.2 22.35 27.0 Q22.45 26.15 22.8 25.75 23.5 25.05 24.45 25.6 25.15 26.0 25.4 27.0 L25.4 27.05 27.95 27.35 29.65 27.9 Q31.15 28.1 32.5 26.85 33.25 26.1 33.8 26.15 L34.35 26.55 34.45 27.25 Q34.4 27.9 33.75 28.45 31.55 30.55 28.65 30.25 L28.5 30.25 27.3 31.6 Q27.0 32.15 26.8 33.3 L26.85 34.25 27.05 34.65 27.3 35.1 29.05 35.35 M13.3 34.85 Q12.8 35.85 13.2 36.45 13.5 36.8 14.4 37.0 15.5 37.2 16.2 37.0 16.8 36.85 17.85 36.15 L20.05 36.05 21.25 36.6 22.4 37.05 24.0 36.9 25.15 36.15 25.4 36.0 25.1 35.55 24.8 34.5 24.8 33.95 25.1 32.2 Q25.45 30.8 26.25 29.95 L25.65 30.0 Q24.95 30.15 24.1 30.75 L22.7 31.8 Q21.05 32.9 19.6 32.65 18.45 32.2 17.85 32.1 16.4 31.8 15.15 32.7 14.1 33.35 13.3 34.85" fill="#ffffff" fill-rule="evenodd" stroke="none"/>
      <path d="M58.4 9.5 Q58.0 9.2 57.95 8.8 57.8 8.35 58.05 7.85 58.25 7.4 58.7 7.2 L59.6 7.15 Q60.1 7.3 60.4 7.7 L60.6 8.6 Q60.55 9.1 60.15 9.45 L59.3 9.8 58.4 9.5 M46.3 7.95 L46.25 7.6 46.15 7.3 Q45.85 6.4 46.2 6.0 46.45 5.65 46.8 5.65 47.3 5.65 47.5 6.25 L47.6 7.7 47.55 8.05 Q47.5 8.5 46.9 8.5 L46.3 7.95 M45.8 9.25 L45.95 9.6 45.8 9.9 45.25 10.05 44.65 10.35 44.05 10.5 Q43.6 10.5 43.45 10.1 43.25 9.65 43.6 9.4 L44.15 9.2 44.75 9.2 45.3 9.1 45.8 9.25 M48.55 8.15 L49.4 7.9 Q49.9 7.8 50.25 8.1 50.7 8.35 50.6 8.85 L50.05 9.5 49.2 9.6 48.7 9.6 48.05 9.5 Q47.8 9.35 47.8 9.0 L48.05 8.45 48.55 8.15 M47.85 10.5 L48.15 11.4 Q48.35 12.25 48.0 12.55 47.8 12.85 47.35 12.75 47.0 12.7 46.75 12.3 L46.5 11.15 46.45 10.7 46.45 10.25 Q46.55 10.0 46.8 9.85 L47.35 9.85 47.85 10.5 M45.75 17.3 Q46.6 17.65 46.6 18.55 46.7 19.5 45.95 19.9 L45.0 20.3 43.2 20.95 41.85 21.7 40.35 22.3 Q37.8 23.3 35.6 24.55 L34.85 24.8 34.5 24.6 34.45 24.25 34.7 24.0 40.15 20.4 42.65 18.55 44.05 17.5 Q44.9 17.0 45.75 17.3 M55.5 23.3 L55.15 23.5 54.15 23.7 53.55 23.65 Q52.0 23.4 51.5 21.95 51.0 20.45 52.0 19.3 52.45 18.8 53.15 18.55 L53.6 18.45 54.2 18.4 Q55.35 18.5 56.1 19.4 56.8 20.35 56.65 21.5 56.5 22.7 55.5 23.3 M55.1 29.6 L53.45 29.8 42.1 30.6 39.6 31.05 38.4 31.0 36.7 31.2 Q39.4 30.1 43.25 29.05 L49.9 27.25 51.65 26.7 53.15 26.05 54.7 25.85 Q55.3 25.95 55.75 26.45 56.2 26.95 56.25 27.6 L56.0 28.75 55.1 29.6 M53.65 40.35 L49.8 39.0 49.15 38.7 43.85 37.75 43.15 37.3 Q43.35 37.05 43.8 36.95 L45.1 36.7 46.9 36.7 46.95 36.7 48.45 36.6 51.35 36.45 53.65 36.5 55.15 36.55 Q55.85 36.7 56.3 37.3 56.8 37.9 56.8 38.6 56.8 39.3 56.3 39.9 55.75 40.45 55.05 40.55 L53.65 40.35 M33.6 41.3 L33.0 40.95 Q32.9 40.7 33.25 40.6 L33.7 40.6 40.7 41.55 42.9 41.95 44.9 42.6 47.65 42.95 Q49.35 43.1 50.25 43.65 51.0 44.05 51.35 44.75 51.75 45.6 51.35 46.4 51.05 47.25 50.1 47.5 49.15 47.8 47.4 47.1 L36.4 42.6 34.4 41.65 33.6 41.3 M39.0 48.65 L39.0 48.2 39.15 47.75 Q39.35 47.3 39.85 47.15 L40.8 47.1 Q41.25 47.25 41.5 47.7 41.8 48.15 41.7 48.6 41.45 49.75 40.35 49.75 L39.45 49.45 39.0 48.65 M53.75 49.5 L53.45 48.8 53.35 48.45 Q53.25 48.2 53.4 47.9 L53.75 47.65 53.9 47.6 54.25 47.8 54.55 48.3 54.55 48.6 54.45 49.05 54.25 49.5 Q54.0 49.75 53.75 49.5 M57.3 50.05 L56.7 50.35 55.95 50.5 55.3 50.35 Q54.95 50.15 55.05 49.8 L55.15 49.35 55.45 49.15 Q55.8 48.95 56.35 48.85 57.05 48.75 57.35 49.2 57.7 49.65 57.3 50.05 M39.15 12.15 Q39.7 12.2 40.2 12.6 40.7 13.0 40.85 13.55 41.2 14.85 40.1 15.6 39.6 15.95 39.0 15.9 38.35 15.9 37.9 15.5 37.45 15.15 37.3 14.55 37.1 13.95 37.3 13.4 37.5 12.85 38.0 12.5 38.55 12.15 39.15 12.15 M15.45 47.9 Q15.65 47.5 16.0 47.6 16.4 47.6 16.5 48.0 L16.25 49.45 Q16.15 50.1 15.4 50.1 L15.1 49.95 Q14.95 49.8 14.95 49.35 L15.15 48.5 15.35 48.2 15.45 47.9 M15.45 46.9 L14.85 47.15 14.35 47.2 13.55 47.2 Q13.05 47.05 13.05 46.45 12.95 45.8 13.65 45.6 L14.15 45.6 14.75 45.65 Q15.35 45.75 15.55 46.0 L15.7 46.45 15.45 46.9 M18.05 45.95 L18.7 45.95 Q19.05 46.05 19.2 46.3 19.4 46.6 19.25 46.9 L18.8 47.2 18.2 47.3 17.2 47.2 Q16.75 46.95 16.85 46.5 16.75 45.95 17.35 45.85 L18.05 45.95 M16.25 45.55 L16.05 45.45 Q15.85 45.2 15.95 44.8 L16.0 44.55 16.1 44.35 16.2 43.85 16.45 43.7 Q16.9 43.5 17.1 43.9 L17.05 44.65 16.9 45.15 16.75 45.45 16.25 45.55 M25.1 46.2 Q25.8 45.65 26.75 45.8 27.7 45.9 28.25 46.55 L28.75 47.8 Q28.8 48.5 28.45 49.05 L27.5 50.0 26.2 50.25 Q24.75 50.1 24.3 48.6 24.1 47.95 24.35 47.25 24.55 46.6 25.1 46.2 M54.55 50.85 L54.6 50.8 55.05 51.25 55.25 51.5 55.35 51.7 55.45 52.7 54.85 53.1 54.4 52.9 54.25 52.65 54.15 52.4 Q53.95 51.75 54.15 51.05 L54.55 50.85 M52.05 51.3 L51.35 50.9 Q51.2 50.4 51.5 50.1 L51.9 49.9 52.15 49.85 52.2 49.8 52.95 49.85 Q53.5 49.95 53.6 50.25 L53.55 50.85 53.0 51.15 52.55 51.15 52.05 51.3" fill="#999999" fill-rule="evenodd" stroke="none"/>
    </g>
    <g id="shape2">
      <path d="M0.0 23.8 L0.0 0.0 64.1 0.0 64.1 23.8 64.1 57.55 0.0 57.55 0.0 23.8 Z" fill="none" stroke="#000000" stroke-linecap="round" stroke-linejoin="round" stroke-width="3.0"/>
    </g>
  </defs>
</svg>
