<?xml version="1.0" encoding="UTF-8" standalone="no"?>
<svg xmlns:ffdec="https://www.free-decompiler.com/flash" xmlns:xlink="http://www.w3.org/1999/xlink" ffdec:objectType="frame" height="60.5px" width="67px" xmlns="http://www.w3.org/2000/svg">
  <g transform="translate(1.5,1.5)">
    <use ffdec:characterId="516" height="57.55" transform="matrix(1.0, 0.0, 0.0, 1.0, 0.0, 0.0)" width="64.1" xlink:href="#shape0"/>
    <use ffdec:characterId="848" height="69.15" transform="matrix(1.0, 0.0, 0.0, 1.0, 0.0, 0.0)" width="65.75" xlink:href="#shape1"/>
    <use ffdec:characterId="518" height="60.55" transform="matrix(1.0, 0.0, 0.0, 1.0, 0.0, 0.0)" width="67.1" xlink:href="#shape2"/>
  </g>
  <defs>
    <g id="shape0">
      <path d="M53.6 0.0 L64.1 0.0 64.1 57.55 53.6 57.55 28.25 57.55 0.0 57.55 0.0 0.0 28.25 0.0 53.6 0.0 53.6 57.55 53.6 0.0 M28.25 0.0 L28.25 57.55 28.25 0.0" fill="#ffffff" fill-rule="evenodd" stroke="none"/>
    </g>
    <g id="shape1">
      <path d="M46.55 16.9 L44.2 17.4 42.65 18.1 42.8 19.05 Q43.0 21.1 42.05 21.8 L40.55 21.95 Q39.7 21.65 39.4 20.9 L39.2 20.1 38.5 20.4 37.4 21.1 Q36.8 21.3 36.3 20.85 35.85 20.45 35.75 19.8 35.65 19.05 36.2 18.2 35.5 17.85 35.35 17.1 L35.25 14.4 Q35.15 13.5 35.2 11.95 L35.25 9.45 35.15 8.35 35.1 4.75 35.15 3.3 Q35.15 2.4 35.6 2.3 36.0 2.15 36.3 2.7 L36.5 3.55 36.75 4.35 36.9 5.3 37.45 8.05 37.7 9.05 37.8 10.15 38.6 14.8 38.75 15.95 Q38.85 15.8 39.05 15.7 L38.8 13.85 Q38.6 12.1 38.5 8.2 L38.15 2.5 37.5 -1.7 Q37.35 -2.75 37.35 -5.95 L37.4 -6.3 37.95 -6.25 38.15 -5.75 40.35 3.65 41.0 8.8 41.6 13.7 42.7 12.8 Q45.4 10.85 48.85 10.6 L51.0 10.7 52.3 11.1 52.3 8.85 52.3 8.15 Q52.5 7.75 52.85 7.85 L53.25 8.3 53.8 10.45 54.05 11.85 55.45 12.7 55.45 12.65 54.45 7.3 54.35 5.5 Q54.25 5.15 54.4 4.95 54.65 4.6 55.0 4.75 L55.4 5.2 56.1 6.75 58.2 12.7 58.45 13.65 58.55 16.15 58.65 17.2 58.75 17.9 Q58.95 18.85 58.65 19.55 58.2 20.55 56.85 21.35 54.95 22.35 53.85 21.6 L52.85 20.35 Q51.8 18.75 50.15 17.8 48.4 16.85 46.55 16.9 M22.5 18.35 L21.15 17.85 17.2 17.75 15.35 18.3 Q14.15 19.05 13.2 21.75 12.4 24.35 11.05 25.1 10.25 25.55 9.25 25.45 8.3 25.35 7.55 24.75 6.05 23.65 5.9 21.55 5.7 19.9 6.5 18.0 L6.6 17.5 6.7 16.5 7.05 15.1 7.7 12.9 8.0 11.9 10.9 5.55 Q11.75 3.85 12.35 3.3 12.6 3.05 12.8 3.05 13.15 2.95 13.25 3.3 L13.05 3.75 Q12.6 4.25 12.2 5.45 L11.6 7.1 10.65 10.05 10.3 11.5 10.15 12.6 10.1 13.5 10.9 12.95 11.25 11.35 12.65 8.05 12.85 7.75 13.2 7.8 13.4 8.05 13.35 8.75 Q12.9 10.4 12.75 12.0 L13.95 11.6 16.45 11.15 Q18.8 10.85 19.95 11.2 20.6 11.4 21.35 11.85 L22.65 12.7 24.05 13.55 24.05 13.45 25.95 5.65 Q28.3 -4.1 30.2 -9.7 30.55 -10.6 31.0 -10.3 31.25 -10.15 31.15 -9.6 L29.35 0.45 28.75 3.65 27.95 7.0 27.4 10.55 26.75 16.0 27.1 16.45 32.35 -4.55 32.65 -4.4 32.7 -4.0 29.9 18.5 29.5 19.95 Q28.9 20.85 27.85 20.5 26.9 20.2 26.7 18.9 L26.7 18.6 26.55 18.6 Q26.35 20.4 25.5 20.8 24.85 21.15 24.15 20.8 23.15 20.25 23.2 18.5 L22.5 18.35 M64.0 37.7 L64.05 38.45 Q63.75 38.75 63.45 38.65 L62.9 38.4 60.55 36.85 59.25 35.45 57.55 33.8 57.2 33.5 57.4 34.65 57.35 35.8 56.95 36.2 56.4 36.15 56.1 35.5 55.4 33.55 54.6 31.55 54.45 31.05 54.35 30.6 Q54.3 30.2 54.5 29.95 L54.5 29.75 Q54.6 29.05 55.25 28.9 L56.3 29.0 58.25 29.15 60.15 29.4 Q61.0 29.7 61.0 30.2 61.0 30.7 60.5 30.9 L59.2 31.1 58.25 31.1 59.6 32.55 61.35 34.65 63.2 36.7 64.0 37.7 M43.7 36.2 L43.1 38.65 Q42.0 41.75 38.65 43.4 36.05 44.7 32.15 44.8 24.8 44.8 21.2 40.55 20.1 39.2 19.7 37.95 19.2 36.1 19.95 33.9 20.5 32.3 22.0 30.4 22.95 29.15 23.8 28.7 L24.8 28.4 Q25.45 28.5 25.55 29.05 L25.35 29.9 23.75 33.0 Q23.55 33.3 23.6 33.55 L23.95 34.1 Q24.9 35.15 24.65 36.6 L32.4 36.9 34.0 36.95 Q35.0 37.2 35.3 37.85 L37.6 36.05 Q38.75 34.95 39.1 33.7 39.35 32.7 39.15 31.1 L38.65 28.85 Q38.15 27.2 38.45 26.45 38.75 25.7 39.6 25.5 40.4 25.25 41.05 25.7 41.5 26.05 42.05 27.45 L43.25 30.2 43.95 33.1 43.7 36.2 M45.8 55.15 L43.65 49.7 43.6 50.55 Q43.5 52.0 42.9 52.7 L42.6 52.9 42.3 52.65 42.0 51.5 Q41.75 49.3 42.05 47.35 42.15 46.7 42.35 46.45 L42.55 46.3 42.55 46.25 43.4 46.15 43.45 46.3 44.05 46.55 48.2 49.5 48.55 50.05 48.1 50.5 47.45 50.35 Q46.55 50.05 45.45 49.35 L45.55 49.55 48.45 54.3 48.9 55.4 Q49.0 56.0 48.7 56.45 48.4 56.9 47.8 57.0 47.05 57.1 46.5 56.45 L45.8 55.15 M5.05 34.15 L2.5 35.35 1.05 35.95 0.25 36.25 Q-0.4 36.15 -0.2 35.35 L0.5 34.5 3.35 32.65 6.6 30.85 6.25 30.7 Q5.45 30.45 5.45 29.95 5.45 29.65 5.95 29.35 L7.5 29.05 9.2 29.05 10.8 29.1 Q11.4 29.4 11.45 29.95 L11.5 30.7 10.95 31.5 7.45 35.3 6.8 35.8 6.1 35.7 Q5.8 35.45 6.0 34.8 6.2 34.15 6.9 33.15 L5.05 34.15 M17.3 51.75 L18.05 50.5 17.8 50.6 16.3 51.1 15.65 51.0 Q15.45 50.75 15.85 50.35 16.55 49.5 17.8 48.55 L19.95 46.95 20.55 46.5 Q20.95 46.05 21.35 46.05 21.9 46.05 22.0 46.6 L22.05 46.7 22.15 47.8 21.8 52.55 21.6 53.3 Q21.4 53.75 21.0 53.55 20.7 53.45 20.6 52.95 L20.2 50.8 19.8 51.45 19.2 52.7 18.95 53.35 18.0 55.2 17.4 56.45 Q17.05 57.2 16.3 57.2 15.7 57.2 15.35 56.55 15.15 56.05 15.4 55.4 L15.85 54.6 16.05 54.0 16.6 53.3 17.3 51.75" fill="#999999" fill-rule="evenodd" stroke="none"/>
      <path d="M28.95 13.8 Q29.85 13.65 32.45 13.75 L35.2 13.8 37.95 14.15 39.75 14.85 43.2 13.7 45.05 13.45 Q46.25 13.65 46.45 14.5 46.65 15.0 46.2 16.45 45.9 17.75 46.05 20.45 L45.75 22.25 46.05 23.15 Q46.45 24.75 46.35 26.95 46.35 29.3 45.9 30.95 44.8 34.6 41.25 36.9 38.1 38.9 34.0 39.2 27.2 39.85 21.45 36.3 19.1 34.9 18.05 33.15 16.75 31.05 17.0 28.25 17.1 26.2 18.3 23.3 L19.1 21.6 17.5 17.65 Q17.0 16.6 17.3 15.65 17.65 14.45 18.7 14.3 L20.05 14.4 21.2 14.5 22.25 14.85 25.05 15.5 Q27.3 14.1 28.95 13.8 M40.45 24.4 L41.4 24.45 42.35 24.25 Q43.1 23.95 43.2 23.0 43.3 22.2 42.55 21.65 L41.5 21.35 39.95 21.25 37.15 21.9 Q35.85 22.3 35.2 22.6 L33.2 23.4 Q32.9 22.5 33.1 21.6 L33.1 21.1 Q33.05 20.8 32.65 20.8 32.3 20.9 32.15 21.1 31.6 21.65 31.6 22.85 31.5 24.1 31.8 24.8 32.25 25.95 33.25 26.0 L34.25 25.85 35.85 25.35 36.0 26.15 Q36.25 26.8 37.0 27.2 L38.45 27.35 39.6 26.45 Q40.05 25.75 39.9 25.05 L39.7 24.45 40.45 24.4 M49.5 48.85 Q48.7 48.6 47.45 47.85 46.0 46.8 45.8 46.55 L45.2 45.55 44.2 45.1 Q42.9 44.15 42.65 42.6 42.35 41.25 42.95 40.15 43.7 38.9 45.0 38.75 L46.25 39.05 46.8 39.5 Q47.55 38.6 48.55 38.05 L48.4 37.8 Q47.95 36.8 48.0 36.3 48.0 35.2 48.95 34.6 49.65 34.25 50.5 34.25 51.6 34.35 52.35 34.8 53.05 35.4 53.6 36.55 L54.15 37.9 Q55.5 38.6 56.5 40.05 57.6 41.65 57.65 43.55 57.65 45.15 56.9 46.3 59.85 49.05 61.65 52.25 L62.2 53.2 63.05 54.2 63.3 55.2 62.95 56.15 62.15 56.65 61.3 57.1 60.5 57.75 Q60.0 58.1 59.55 58.05 L58.9 57.8 58.25 57.5 57.3 57.35 Q56.6 57.2 55.95 56.5 L55.1 55.2 54.15 53.35 52.6 48.8 49.5 48.85 M23.55 23.4 Q22.3 24.5 22.6 26.05 22.85 27.7 24.4 28.2 25.55 28.55 26.85 27.85 27.95 27.25 28.45 26.25 29.0 25.05 28.45 23.95 27.8 22.75 26.25 22.6 24.7 22.35 23.55 23.4 M55.0 45.1 L54.85 44.9 54.4 44.55 53.4 43.95 53.15 43.85 Q53.0 43.6 52.75 43.7 L52.3 43.2 51.9 42.4 51.4 41.8 50.85 41.55 Q50.45 41.55 50.45 41.95 L50.75 42.35 51.1 42.9 51.9 44.7 52.25 45.2 52.3 45.25 52.35 45.4 52.55 45.7 52.7 46.4 52.85 46.7 53.0 47.2 53.4 47.15 53.55 46.75 53.5 46.3 53.6 45.4 53.5 45.15 54.25 45.4 54.7 45.45 Q55.1 45.45 55.0 45.1 M52.75 41.15 Q53.3 41.0 53.5 40.35 53.6 39.85 53.3 39.4 52.95 38.95 52.45 39.05 L51.95 39.25 Q51.7 39.3 51.5 39.6 L51.4 40.2 51.45 40.45 51.95 41.0 52.75 41.15 M49.0 44.05 L49.35 43.2 49.1 42.35 Q48.85 41.95 48.35 41.85 L47.4 41.95 46.8 42.6 Q46.6 43.05 46.75 43.5 46.85 43.95 47.3 44.25 47.7 44.55 48.15 44.45 L48.6 44.35 49.0 44.05 M40.45 29.15 Q38.85 30.2 36.8 30.65 L35.4 30.7 34.25 30.4 33.1 30.1 32.7 29.6 Q32.25 29.15 31.65 29.25 L30.8 29.45 28.9 30.85 27.0 31.6 26.3 31.75 24.2 31.3 23.65 30.95 23.4 30.45 Q23.3 30.25 23.0 30.2 L22.55 30.4 22.35 31.0 22.4 31.95 Q22.6 32.65 23.8 33.35 25.5 34.2 26.7 34.2 L28.5 33.85 29.5 33.5 31.15 32.5 31.8 32.1 34.45 32.85 36.3 32.95 38.0 32.6 39.15 32.2 Q40.65 31.6 41.8 30.3 L42.4 29.3 42.65 28.45 42.85 28.0 42.6 27.45 Q42.35 27.3 42.0 27.45 L41.5 28.15 40.45 29.15 M16.1 39.8 L17.0 40.5 17.6 39.7 Q18.7 38.65 20.05 38.7 20.8 38.75 21.35 39.15 21.95 39.6 22.1 40.25 22.5 41.5 21.25 42.85 20.45 43.75 19.15 44.2 19.35 45.75 18.25 47.2 17.5 48.3 15.75 49.5 L14.2 50.3 10.85 50.1 9.85 52.15 7.95 56.45 Q7.45 57.6 6.8 57.95 L5.8 58.05 4.9 57.5 4.7 57.2 3.8 57.95 Q3.0 58.7 2.15 58.75 L0.7 58.55 Q-0.95 58.05 -1.35 57.3 -1.8 56.6 -1.45 55.65 L-0.55 54.25 2.1 51.7 3.35 50.55 5.6 48.9 7.25 47.95 Q6.3 46.7 6.3 44.65 6.4 43.1 7.0 42.0 L7.9 40.8 Q8.85 39.85 10.3 39.3 L10.65 39.2 Q10.6 38.45 11.05 37.4 11.75 35.9 12.85 35.3 14.25 34.45 15.5 35.1 16.25 35.45 16.65 36.35 17.0 37.15 16.8 38.05 L16.1 39.4 15.85 39.7 16.1 39.8 M10.8 42.95 Q11.55 43.2 12.2 42.65 12.75 42.1 12.6 41.3 12.45 40.55 11.6 40.25 10.85 40.15 10.45 40.5 10.15 40.8 10.0 41.15 9.75 41.95 10.2 42.55 L10.8 42.95 M15.55 44.9 L17.3 44.85 17.85 44.1 Q18.0 43.6 17.8 43.2 L17.25 42.45 16.35 42.2 Q15.9 42.2 15.5 42.55 15.1 42.85 15.0 43.3 14.75 44.25 15.55 44.9 M10.95 47.65 Q11.05 47.9 11.25 47.8 L11.55 47.45 11.65 47.1 11.95 46.7 11.95 46.5 12.1 46.3 12.25 46.0 12.4 45.85 13.25 44.65 13.5 44.05 13.2 43.6 13.15 43.65 Q12.9 43.65 12.55 43.9 L11.7 44.85 11.5 45.15 10.9 45.3 10.05 45.65 9.6 45.95 9.4 46.2 9.05 46.55 Q8.95 46.7 9.0 46.9 L9.25 47.1 9.6 47.0 Q10.1 46.75 10.7 46.55 L11.2 46.4 11.1 46.7 11.05 47.1 Q10.85 47.4 10.95 47.65" fill="#000000" fill-rule="evenodd" stroke="none"/>
      <path d="M40.45 24.4 L39.7 24.45 39.9 25.05 Q40.05 25.75 39.6 26.45 L38.45 27.35 37.0 27.2 Q36.25 26.8 36.0 26.15 L35.85 25.35 34.25 25.85 33.25 26.0 Q32.25 25.95 31.8 24.8 31.5 24.1 31.6 22.85 31.6 21.65 32.15 21.1 32.3 20.9 32.65 20.8 33.05 20.8 33.1 21.1 L33.1 21.6 Q32.9 22.5 33.2 23.4 L35.2 22.6 Q35.85 22.3 37.15 21.9 L39.95 21.25 41.5 21.35 42.55 21.65 Q43.3 22.2 43.2 23.0 43.1 23.95 42.35 24.25 L41.4 24.45 40.45 24.4 M40.45 29.15 L41.5 28.15 42.0 27.45 Q42.35 27.3 42.6 27.45 L42.85 28.0 42.65 28.45 42.4 29.3 41.8 30.3 Q40.65 31.6 39.15 32.2 L38.0 32.6 36.3 32.95 34.45 32.85 31.8 32.1 31.15 32.5 29.5 33.5 28.5 33.85 26.7 34.2 Q25.5 34.2 23.8 33.35 22.6 32.65 22.4 31.95 L22.35 31.0 22.55 30.4 23.0 30.2 Q23.3 30.25 23.4 30.45 L23.65 30.95 24.2 31.3 26.3 31.75 27.0 31.6 28.9 30.85 30.8 29.45 31.65 29.25 Q32.25 29.15 32.7 29.6 L33.1 30.1 34.25 30.4 35.4 30.7 36.8 30.65 Q38.85 30.2 40.45 29.15 M49.0 44.05 L48.6 44.35 48.15 44.45 Q47.7 44.55 47.3 44.25 46.85 43.95 46.75 43.5 46.6 43.05 46.8 42.6 L47.4 41.95 48.35 41.85 Q48.85 41.95 49.1 42.35 L49.35 43.2 49.0 44.05 M52.75 41.15 L51.95 41.0 51.45 40.45 51.4 40.2 51.5 39.6 Q51.7 39.3 51.95 39.25 L52.45 39.05 Q52.95 38.95 53.3 39.4 53.6 39.85 53.5 40.35 53.3 41.0 52.75 41.15 M55.0 45.1 Q55.1 45.45 54.7 45.45 L54.25 45.4 53.5 45.15 53.6 45.4 53.5 46.3 53.55 46.75 53.4 47.15 53.0 47.2 52.85 46.7 52.7 46.4 52.55 45.7 52.35 45.4 52.3 45.25 52.25 45.2 51.9 44.7 51.1 42.9 50.75 42.35 50.45 41.95 Q50.45 41.55 50.85 41.55 L51.4 41.8 51.9 42.4 52.3 43.2 52.75 43.7 Q53.0 43.6 53.15 43.85 L53.4 43.95 54.4 44.55 54.85 44.9 55.0 45.1 M23.55 23.4 Q24.7 22.35 26.25 22.6 27.8 22.75 28.45 23.95 29.0 25.05 28.45 26.25 27.95 27.25 26.85 27.85 25.55 28.55 24.4 28.2 22.85 27.7 22.6 26.05 22.3 24.5 23.55 23.4 M10.95 47.65 Q10.85 47.4 11.05 47.1 L11.1 46.7 11.2 46.4 10.7 46.55 Q10.1 46.75 9.6 47.0 L9.25 47.1 9.0 46.9 Q8.95 46.7 9.05 46.55 L9.4 46.2 9.6 45.95 10.05 45.65 10.9 45.3 11.5 45.15 11.7 44.85 12.55 43.9 Q12.9 43.65 13.15 43.65 L13.2 43.6 13.5 44.05 13.25 44.65 12.4 45.85 12.25 46.0 12.1 46.3 11.95 46.5 11.95 46.7 11.65 47.1 11.55 47.45 11.25 47.8 Q11.05 47.9 10.95 47.65 M15.55 44.9 Q14.75 44.25 15.0 43.3 15.1 42.85 15.5 42.55 15.9 42.2 16.35 42.2 L17.25 42.45 17.8 43.2 Q18.0 43.6 17.85 44.1 L17.3 44.85 15.55 44.9 M10.8 42.95 L10.2 42.55 Q9.75 41.95 10.0 41.15 10.15 40.8 10.45 40.5 10.85 40.15 11.6 40.25 12.45 40.55 12.6 41.3 12.75 42.1 12.2 42.65 11.55 43.2 10.8 42.95" fill="#ffffff" fill-rule="evenodd" stroke="none"/>
    </g>
    <g id="shape2">
      <path d="M0.0 23.8 L0.0 0.0 64.1 0.0 64.1 23.8 64.1 57.55 0.0 57.55 0.0 23.8 Z" fill="none" stroke="#000000" stroke-linecap="round" stroke-linejoin="round" stroke-width="3.0"/>
    </g>
  </defs>
</svg>
